M48
; DRILL file {KiCad 5.1.5-1.fc31} date T 14 apr   2020 19:37:29 EEST
; FORMAT={-:-/ absolute / inch / decimal}
; #@! TF.CreationDate,2020-04-14T19:37:29+03:00
; #@! TF.GenerationSoftware,Kicad,Pcbnew,5.1.5-1.fc31
; #@! TF.FileFunction,Plated,1,2,PTH
FMAT,2
INCH
T1C0.0157
T2C0.0236
T3C0.0295
T4C0.0299
T5C0.0315
T6C0.0400
T7C0.0433
T8C0.0511
%
G90
G05
T1
X3.8Y-3.32
X3.8Y-3.53
X3.8Y-3.73
X3.8Y-3.92
X3.8Y-4.4
X3.8Y-4.91
X3.8Y-5.4
X3.8Y-5.6
X3.81Y-2.3
X3.81Y-2.51
X3.81Y-2.9
X3.81Y-3.1
X4.04Y-5.81
X4.1Y-2.05
X4.2Y-5.81
X4.3Y-2.05
X4.35Y-4.14
X4.4Y-5.81
X4.42Y-3.96
X4.46Y-4.94
X4.5Y-2.05
X4.59Y-3.96
X4.6Y-3.75
X4.6Y-5.81
X4.7Y-2.05
X4.71Y-4.78
X4.7365Y-4.648
X4.79Y-3.71
X4.79Y-3.87
X4.79Y-3.98
X4.8Y-5.81
X4.9Y-2.05
X5.0Y-3.68
X5.0Y-3.86
X5.0Y-3.96
X5.0Y-5.81
X5.02Y-4.54
X5.1Y-2.05
X5.15Y-4.54
X5.2Y-3.94
X5.2Y-5.81
X5.22Y-3.64
X5.22Y-5.08
X5.22Y-5.19
X5.3Y-2.05
X5.33Y-3.64
X5.34Y-4.5136
X5.38Y-5.08
X5.38Y-5.19
X5.4Y-5.81
X5.48Y-4.53
X5.49Y-5.08
X5.5Y-2.05
X5.53Y-3.71
X5.54Y-3.56
X5.6Y-5.26
X5.6Y-5.81
X5.61Y-5.36
X5.68Y-2.05
X5.7304Y-4.3595
X5.76Y-3.57
X5.77Y-4.73
X5.78Y-5.41
X5.8Y-5.81
X5.9Y-2.05
X6.0Y-5.81
X6.1Y-2.05
X6.18Y-5.01
X6.2Y-5.81
X6.26Y-3.43
X6.27Y-4.76
X6.3Y-2.05
X6.35Y-4.76
X6.4Y-5.81
X6.5Y-2.05
X6.55Y-4.77
X6.61Y-3.38
X6.61Y-5.81
X6.67Y-3.75
X6.7Y-2.05
X6.71Y-4.07
X6.8Y-5.81
X6.84Y-3.42
X6.86Y-4.07
X6.89Y-4.3
X6.9Y-2.05
X7.09Y-4.31
X7.0939Y-3.1191
X7.1Y-2.05
X7.11Y-5.81
X7.3Y-2.05
X7.3Y-5.81
X7.53Y-2.7
X7.53Y-2.9
X7.53Y-3.1
X7.53Y-3.3
X7.53Y-3.5
X7.54Y-2.3
X7.54Y-2.5
X7.54Y-4.3
X7.54Y-4.5
X7.54Y-4.7
X7.54Y-4.9
X7.54Y-5.1
X7.54Y-5.3
X7.54Y-5.5
X7.55Y-3.66
X7.55Y-3.85
X7.55Y-4.03
T2
X7.2113Y-4.52
X7.29Y-4.52
X4.2165Y-4.7402
X4.2953Y-4.7402
X6.7323Y-2.8701
X6.811Y-2.8701
X7.34Y-3.89
X7.34Y-3.9687
X6.61Y-4.91
X6.6887Y-4.91
X6.74Y-3.8713
X6.74Y-3.95
X4.2362Y-5.0433
X4.315Y-5.0433
X6.57Y-3.5513
X6.57Y-3.63
X6.5394Y-2.874
X6.6181Y-2.874
X6.3913Y-5.11
X6.47Y-5.11
X6.1Y-4.7313
X6.1Y-4.81
X6.39Y-4.91
X6.4687Y-4.91
X5.34Y-4.82
X5.4187Y-4.82
X5.34Y-4.41
X5.4187Y-4.41
X4.2323Y-5.2441
X4.311Y-5.2441
X4.2165Y-4.5394
X4.2953Y-4.5394
X7.15Y-3.5613
X7.15Y-3.64
X5.06Y-4.42
X5.1387Y-4.42
X7.29Y-2.6613
X7.29Y-2.74
X6.76Y-3.26
X6.76Y-3.3387
X6.11Y-5.61
X6.11Y-5.6887
X6.61Y-5.11
X6.6887Y-5.11
T3
X6.35Y-5.47
X6.4Y-5.47
X6.45Y-5.47
X6.41Y-3.93
X6.46Y-3.93
X6.51Y-3.93
X6.77Y-5.33
X6.82Y-5.33
X6.87Y-5.33
X7.01Y-4.17
X7.06Y-4.17
X7.11Y-4.17
X7.19Y-4.9
X7.24Y-4.9
X7.29Y-4.9
X6.23Y-3.32
X6.28Y-3.32
X6.33Y-3.32
X6.24Y-3.6
X6.29Y-3.6
X6.34Y-3.6
X6.86Y-5.67
X6.91Y-5.67
X6.96Y-5.67
X7.15Y-2.98
X7.2Y-2.98
X7.25Y-2.98
T4
X6.3504Y-2.25
X6.3504Y-2.5492
T5
X6.99Y-2.72
X6.99Y-2.82
X4.88Y-3.61
X4.88Y-3.71
X5.07Y-5.46
X5.07Y-5.56
X5.07Y-5.66
X7.28Y-2.18
X7.28Y-2.2784
X6.83Y-4.97
X7.03Y-4.97
X7.02Y-5.31
X7.12Y-5.31
X6.59Y-5.47
X6.69Y-5.47
X7.16Y-3.86
X7.16Y-3.96
X6.76Y-4.1816
X6.76Y-4.28
X6.25Y-3.8
X6.25Y-3.9
X5.248Y-2.25
X5.248Y-2.8484
X5.01Y-4.99
X5.11Y-4.99
X7.37Y-3.72
X7.47Y-3.72
X6.7795Y-2.5827
X6.7795Y-2.6827
X4.88Y-3.4016
X4.88Y-3.5
X6.94Y-4.44
X7.04Y-4.44
X4.49Y-5.46
X4.49Y-5.56
X4.49Y-5.66
X4.65Y-5.16
X4.75Y-5.16
X7.4Y-3.23
X7.4Y-3.33
X7.3Y-4.09
X7.3Y-4.19
X6.99Y-2.95
X6.99Y-3.05
X6.06Y-4.93
X6.16Y-4.93
X7.2Y-5.19
X7.3Y-5.19
X6.83Y-4.8
X7.03Y-4.8
X4.57Y-4.21
X4.57Y-4.31
X4.57Y-4.41
X4.57Y-4.51
X4.57Y-4.61
X4.57Y-4.71
X4.57Y-4.81
X4.57Y-4.91
X4.87Y-4.21
X4.87Y-4.31
X4.87Y-4.41
X4.87Y-4.51
X4.87Y-4.61
X4.87Y-4.71
X4.87Y-4.81
X4.87Y-4.91
X4.5Y-3.7716
X4.5Y-3.87
X4.69Y-3.6
X4.69Y-3.7
X5.01Y-4.74
X5.11Y-4.74
X7.41Y-5.45
X7.41Y-5.55
X6.55Y-5.67
X6.75Y-5.67
X4.69Y-3.4016
X4.69Y-3.5
X4.88Y-3.82
X4.88Y-3.92
X5.67Y-3.62
X5.67Y-3.72
X6.51Y-4.19
X6.51Y-4.29
X6.48Y-3.26
X6.48Y-3.36
X6.93Y-3.56
X6.93Y-3.66
X4.31Y-3.77
X4.31Y-3.87
X6.06Y-3.8016
X6.06Y-3.9
X6.85Y-5.47
X6.95Y-5.47
X5.86Y-3.8416
X5.86Y-3.94
X5.67Y-3.4216
X5.67Y-3.52
X5.36Y-5.46
X5.36Y-5.56
X5.36Y-5.66
X6.94Y-4.62
X7.04Y-4.62
X5.86Y-3.4216
X5.86Y-3.52
X6.04Y-3.27
X6.04Y-3.37
X7.45Y-4.11
X7.45Y-4.21
X6.09Y-5.38
X6.09Y-5.48
X4.78Y-5.46
X4.78Y-5.56
X4.78Y-5.66
X4.2116Y-4.25
X4.31Y-4.25
X6.4Y-4.53
X6.6Y-4.53
X7.21Y-5.47
X7.21Y-5.57
X7.21Y-5.67
X6.09Y-4.17
X6.09Y-4.27
X5.86Y-3.62
X5.86Y-3.72
X5.88Y-5.6
X5.88Y-5.7
X7.01Y-3.2416
X7.01Y-3.34
X7.2Y-3.2416
X7.2Y-3.34
X7.4Y-2.93
X7.4Y-3.03
X6.35Y-5.67
X6.45Y-5.67
X6.84Y-5.11
X7.04Y-5.11
X5.67Y-3.84
X5.67Y-3.94
X5.88Y-5.39
X5.88Y-5.49
X4.69Y-3.8216
X4.69Y-3.92
X6.5945Y-2.5787
X6.5945Y-2.6787
X5.01Y-5.19
X5.11Y-5.19
X6.05Y-3.55
X6.05Y-3.65
X6.79Y-3.54
X6.79Y-3.64
X6.18Y-5.12
X6.28Y-5.12
X5.12Y-3.52
X5.12Y-3.62
X5.12Y-3.72
X5.12Y-3.82
X5.12Y-3.92
X5.12Y-4.02
X5.12Y-4.12
X5.42Y-3.52
X5.42Y-3.62
X5.42Y-3.72
X5.42Y-3.82
X5.42Y-3.92
X5.42Y-4.02
X5.42Y-4.12
X5.59Y-4.44
X5.59Y-4.54
X5.59Y-4.64
X5.59Y-4.74
X5.59Y-4.84
X5.59Y-4.94
X5.59Y-5.04
X5.59Y-5.14
X5.89Y-4.44
X5.89Y-4.54
X5.89Y-4.64
X5.89Y-4.74
X5.89Y-4.84
X5.89Y-4.94
X5.89Y-5.04
X5.89Y-5.14
X6.96Y-3.86
X6.96Y-3.96
X7.2Y-4.74
X7.3Y-4.74
X4.21Y-4.04
X4.3084Y-4.04
X6.2703Y-4.21
X6.3687Y-4.21
X7.28Y-2.4
X7.28Y-2.4984
X6.05Y-4.53
X6.25Y-4.53
X5.65Y-5.46
X5.65Y-5.56
X5.65Y-5.66
T6
X3.8646Y-4.0417
X3.8646Y-4.2417
X3.8646Y-4.5417
X3.8646Y-4.7417
X3.8646Y-5.0417
X3.8646Y-5.2417
X4.0646Y-4.1417
X4.0646Y-4.6417
X4.0646Y-5.1417
T7
X6.7087Y-2.3386
X6.8087Y-2.3386
X6.9087Y-2.3386
T8
X4.9764Y-2.563
X4.9764Y-2.7598
T0
M30
